<?xml version="1.0" encoding="iso-8859-1"?>
<!-- Uploaded to: SVG Repo, www.svgrepo.com, Generator: SVG Repo Mixer Tools -->
<svg height="800px" width="800px" version="1.1" id="Layer_1" xmlns="http://www.w3.org/2000/svg" xmlns:xlink="http://www.w3.org/1999/xlink" 
	 viewBox="0 0 512 512" xml:space="preserve">
<g transform="translate(0 1)">
	<polygon style="fill:#3D83F3;" points="34.133,498.2 477.867,498.2 477.867,11.8 34.133,11.8 	"/>
	<polygon style="fill:#315ED8;" points="477.867,498.2 503.467,498.2 503.467,11.8 477.867,11.8 	"/>
	<polygon style="fill:#FFFFFF;" points="8.533,498.2 34.133,498.2 34.133,11.8 8.533,11.8 	"/>
	<path id="SVGCleanerId_0" d="M512,506.733H0v-384c0-5.12,3.413-8.533,8.533-8.533s8.533,3.413,8.533,8.533v366.933h477.867v-76.8
		c0-5.12,3.413-8.533,8.533-8.533c5.12,0,8.533,3.413,8.533,8.533V506.733z"/>
	<path id="SVGCleanerId_1" d="M503.467,344.6c-5.12,0-8.533-3.413-8.533-8.533V20.333H17.067v34.133c0,5.12-3.413,8.533-8.533,8.533
		S0,59.587,0,54.467v-51.2h512v332.8C512,341.187,508.587,344.6,503.467,344.6z"/>
	<path id="SVGCleanerId_2" d="M17.067,88.6c0-5.12-3.413-8.533-8.533-8.533S0,83.48,0,88.6s3.413,8.533,8.533,8.533
		S17.067,93.72,17.067,88.6"/>
	<path id="SVGCleanerId_3" d="M503.467,387.267c-5.12,0-8.533-3.413-8.533-8.533V370.2c0-5.12,3.413-8.533,8.533-8.533
		c5.12,0,8.533,3.413,8.533,8.533v8.533C512,383.853,508.587,387.267,503.467,387.267z"/>
	<path id="SVGCleanerId_4" d="M136.533,173.933c-5.12,0-8.533-3.413-8.533-8.533v-34.133c0-5.12,3.413-8.533,8.533-8.533
		s8.533,3.413,8.533,8.533V165.4C145.067,170.52,141.653,173.933,136.533,173.933z"/>
	<path id="SVGCleanerId_5" d="M375.467,139.8H136.533c-5.12,0-8.533-3.413-8.533-8.533c0-5.12,3.413-8.533,8.533-8.533h238.933
		c5.12,0,8.533,3.413,8.533,8.533C384,136.387,380.587,139.8,375.467,139.8z"/>
	<path id="SVGCleanerId_6" d="M375.467,173.933c-5.12,0-8.533-3.413-8.533-8.533v-34.133c0-5.12,3.413-8.533,8.533-8.533
		c5.12,0,8.533,3.413,8.533,8.533V165.4C384,170.52,380.587,173.933,375.467,173.933z"/>
	<path id="SVGCleanerId_7" d="M256,404.333c-5.12,0-8.533-3.413-8.533-8.533V131.267c0-5.12,3.413-8.533,8.533-8.533
		c5.12,0,8.533,3.413,8.533,8.533V395.8C264.533,400.92,261.12,404.333,256,404.333z"/>
	<path id="SVGCleanerId_8" d="M307.2,404.333H204.8c-5.12,0-8.533-3.413-8.533-8.533s3.413-8.533,8.533-8.533h102.4
		c5.12,0,8.533,3.413,8.533,8.533S312.32,404.333,307.2,404.333z"/>
	<path id="SVGCleanerId_9" d="M392.533,327.533c-2.56,0-4.267-0.853-5.973-2.56l-76.8-76.8c-3.413-3.413-3.413-8.533,0-11.947
		s8.533-3.413,11.947,0l76.8,76.8c3.413,3.413,3.413,8.533,0,11.947C396.8,326.68,395.093,327.533,392.533,327.533z"/>
	<path id="SVGCleanerId_10" d="M315.733,327.533c-2.56,0-4.267-0.853-5.973-2.56c-3.413-3.413-3.413-8.533,0-11.947l76.8-76.8
		c3.413-3.413,8.533-3.413,11.947,0c3.413,3.413,3.413,8.533,0,11.947l-76.8,76.8C320,326.68,318.293,327.533,315.733,327.533z"/>
	<polygon style="fill:#3D83F3;" points="34.133,498.2 477.867,498.2 477.867,11.8 34.133,11.8 	"/>
	<polygon style="fill:#315ED8;" points="477.867,498.2 503.467,498.2 503.467,11.8 477.867,11.8 	"/>
	<polygon style="fill:#FFFFFF;" points="8.533,498.2 34.133,498.2 34.133,11.8 8.533,11.8 	"/>
	<g>
		<path id="SVGCleanerId_0_1_" d="M512,506.733H0v-384c0-5.12,3.413-8.533,8.533-8.533s8.533,3.413,8.533,8.533v366.933h477.867
			v-76.8c0-5.12,3.413-8.533,8.533-8.533c5.12,0,8.533,3.413,8.533,8.533V506.733z"/>
	</g>
	<g>
		<path id="SVGCleanerId_1_1_" d="M503.467,344.6c-5.12,0-8.533-3.413-8.533-8.533V20.333H17.067v34.133
			c0,5.12-3.413,8.533-8.533,8.533S0,59.587,0,54.467v-51.2h512v332.8C512,341.187,508.587,344.6,503.467,344.6z"/>
	</g>
	<g>
		<path id="SVGCleanerId_2_1_" d="M17.067,88.6c0-5.12-3.413-8.533-8.533-8.533S0,83.48,0,88.6s3.413,8.533,8.533,8.533
			S17.067,93.72,17.067,88.6"/>
	</g>
	<g>
		<path id="SVGCleanerId_3_1_" d="M503.467,387.267c-5.12,0-8.533-3.413-8.533-8.533V370.2c0-5.12,3.413-8.533,8.533-8.533
			c5.12,0,8.533,3.413,8.533,8.533v8.533C512,383.853,508.587,387.267,503.467,387.267z"/>
	</g>
	<g>
		<path id="SVGCleanerId_4_1_" d="M136.533,173.933c-5.12,0-8.533-3.413-8.533-8.533v-34.133c0-5.12,3.413-8.533,8.533-8.533
			s8.533,3.413,8.533,8.533V165.4C145.067,170.52,141.653,173.933,136.533,173.933z"/>
	</g>
	<g>
		<path id="SVGCleanerId_5_1_" d="M375.467,139.8H136.533c-5.12,0-8.533-3.413-8.533-8.533c0-5.12,3.413-8.533,8.533-8.533h238.933
			c5.12,0,8.533,3.413,8.533,8.533C384,136.387,380.587,139.8,375.467,139.8z"/>
	</g>
	<g>
		<path id="SVGCleanerId_6_1_" d="M375.467,173.933c-5.12,0-8.533-3.413-8.533-8.533v-34.133c0-5.12,3.413-8.533,8.533-8.533
			c5.12,0,8.533,3.413,8.533,8.533V165.4C384,170.52,380.587,173.933,375.467,173.933z"/>
	</g>
	<g>
		<path id="SVGCleanerId_7_1_" d="M256,404.333c-5.12,0-8.533-3.413-8.533-8.533V131.267c0-5.12,3.413-8.533,8.533-8.533
			c5.12,0,8.533,3.413,8.533,8.533V395.8C264.533,400.92,261.12,404.333,256,404.333z"/>
	</g>
	<g>
		<path id="SVGCleanerId_8_1_" d="M307.2,404.333H204.8c-5.12,0-8.533-3.413-8.533-8.533s3.413-8.533,8.533-8.533h102.4
			c5.12,0,8.533,3.413,8.533,8.533S312.32,404.333,307.2,404.333z"/>
	</g>
	<g>
		<path id="SVGCleanerId_9_1_" d="M392.533,327.533c-2.56,0-4.267-0.853-5.973-2.56l-76.8-76.8c-3.413-3.413-3.413-8.533,0-11.947
			s8.533-3.413,11.947,0l76.8,76.8c3.413,3.413,3.413,8.533,0,11.947C396.8,326.68,395.093,327.533,392.533,327.533z"/>
	</g>
	<g>
		<path id="SVGCleanerId_10_1_" d="M315.733,327.533c-2.56,0-4.267-0.853-5.973-2.56c-3.413-3.413-3.413-8.533,0-11.947l76.8-76.8
			c3.413-3.413,8.533-3.413,11.947,0c3.413,3.413,3.413,8.533,0,11.947l-76.8,76.8C320,326.68,318.293,327.533,315.733,327.533z"/>
	</g>
</g>
</svg>